<?xml version="1.0" standalone="no"?>
<!DOCTYPE svg PUBLIC "-//W3C//DTD SVG 20010904//EN"
 "http://www.w3.org/TR/2001/REC-SVG-20010904/DTD/svg10.dtd">
<svg version="1.0" xmlns="http://www.w3.org/2000/svg"
 width="512.000000pt" height="512.000000pt" viewBox="0 0 512.000000 512.000000"
 preserveAspectRatio="xMidYMid meet">

<g transform="translate(0.000000,512.000000) scale(0.100000,-0.100000)"
fill="#000000" stroke="none">
<path d="M3347 4432 l-167 -167 52 -53 53 -52 57 57 57 57 166 -165 c91 -90
169 -165 173 -167 4 -1 30 20 57 48 l50 50 -170 170 -170 170 58 58 57 58 -53
52 -52 52 -168 -168z"/>
<path d="M2992 4077 c-99 -101 -122 -129 -122 -153 0 -24 32 -60 193 -221 161
-161 197 -193 221 -193 24 0 52 23 153 122 l123 122 -52 53 -52 53 -81 -80
c-44 -44 -85 -80 -91 -80 -13 0 -54 43 -54 56 0 5 36 45 80 89 l80 79 -52 53
-52 53 -81 -80 c-44 -44 -85 -80 -91 -80 -13 0 -54 42 -54 55 0 5 36 46 80 90
l80 81 -53 52 -53 52 -122 -123z"/>
<path d="M2722 3807 l-52 -53 35 -34 c19 -19 35 -41 35 -50 0 -21 -40 -142
-51 -155 -6 -5 -34 16 -74 55 l-65 65 -53 -53 -52 -52 223 -222 222 -223 52
53 53 52 -94 94 c-92 93 -94 95 -85 128 l10 33 74 3 74 3 71 -71 71 -70 52 53
52 53 -95 94 -95 95 -74 3 -74 4 14 42 c8 22 13 50 10 61 -3 11 -34 48 -68 83
l-64 62 -52 -53z"/>
<path d="M2355 3430 c-11 -4 -77 -66 -147 -137 -158 -160 -158 -158 -56 -260
l72 -73 106 0 105 0 -83 83 c-45 45 -82 87 -82 93 0 5 25 34 55 64 l55 54 30
-29 31 -29 52 52 52 52 -65 64 c-68 67 -92 80 -125 66z"/>
<path d="M2605 3130 l-49 -50 29 -30 29 -30 -29 -30 -29 -30 106 0 c117 0 131
7 131 61 0 24 -14 44 -64 95 -35 35 -66 64 -69 64 -3 0 -28 -22 -55 -50z"/>
<path d="M1840 2640 l0 -80 80 0 80 0 0 -240 0 -240 80 0 80 0 0 240 0 240 80
0 80 0 0 80 0 80 -240 0 -240 0 0 -80z"/>
<path d="M2400 2400 l0 -320 80 0 80 0 0 320 0 320 -80 0 -80 0 0 -320z"/>
<path d="M2690 2707 c-48 -24 -50 -43 -48 -319 4 -332 -19 -303 238 -303 237
0 232 -3 238 140 l4 95 -81 0 -81 0 0 -40 0 -40 -80 0 -80 0 0 160 0 160 80 0
80 0 0 -40 0 -40 81 0 81 0 -4 95 c-6 142 -2 139 -226 143 -129 2 -184 -1
-202 -11z"/>
<path d="M3200 2400 l0 -320 80 0 80 0 0 138 0 138 34 16 33 16 47 -47 46 -47
0 -107 0 -107 81 0 81 0 -4 135 -3 134 -53 54 -54 54 43 24 c57 32 69 58 69
157 l0 82 -80 0 -80 0 0 -58 0 -58 -75 -37 c-42 -20 -78 -37 -80 -37 -3 0 -5
43 -5 95 l0 95 -80 0 -80 0 0 -320z"/>
<path d="M3810 2707 c-48 -24 -50 -43 -48 -319 4 -330 -17 -302 223 -306 l175
-3 0 80 0 81 -120 0 -120 0 0 40 0 40 120 0 120 0 0 80 0 80 -120 0 -120 0 0
40 0 40 120 0 120 0 0 80 0 80 -162 0 c-111 0 -171 -4 -188 -13z"/>
<path d="M4240 2640 l0 -80 80 0 80 0 0 -240 0 -240 80 0 80 0 0 240 0 240 80
0 80 0 0 80 0 80 -240 0 -240 0 0 -80z"/>
<path d="M640 2560 l0 -80 240 0 240 0 0 80 0 80 -240 0 -240 0 0 -80z"/>
<path d="M640 2240 l0 -80 240 0 240 0 0 80 0 80 -240 0 -240 0 0 -80z"/>
<path d="M640 1920 l0 -80 240 0 240 0 0 80 0 80 -240 0 -240 0 0 -80z"/>
<path d="M640 1600 l0 -80 240 0 240 0 0 80 0 80 -240 0 -240 0 0 -80z"/>
<path d="M2994 1478 c-31 -69 -92 -157 -151 -220 l-56 -58 206 0 207 0 0 160
0 160 -93 0 -94 0 -19 -42z"/>
<path d="M640 1280 l0 -80 240 0 240 0 0 80 0 80 -240 0 -240 0 0 -80z"/>
<path d="M1172 807 c-28 -91 -28 -97 7 -131 35 -33 66 -36 118 -10 54 26 156
25 208 -3 52 -28 100 -78 121 -128 14 -33 15 -59 9 -156 -6 -106 -5 -120 14
-157 11 -22 24 -43 29 -46 5 -3 168 155 363 350 l354 354 -600 0 -600 0 -23
-73z"/>
</g>
</svg>
